<svg xmlns="http://www.w3.org/2000/svg" viewBox="0 0 660 470" role="img" aria-label="RB screen / easy offense — Turns an aggressive rush into a negative for the defense and gets the ball out of Mahomes' hands before the knee is ever tested." width="660" height="470"><defs><marker id="arrow" viewBox="0 0 10 10" refX="8" refY="5" markerWidth="7" markerHeight="7" orient="auto-start-reverse"><path d="M0 0 L10 5 L0 10 z" fill="#ffffff"/></marker><marker id="arrow-gold" viewBox="0 0 10 10" refX="8" refY="5" markerWidth="7" markerHeight="7" orient="auto-start-reverse"><path d="M0 0 L10 5 L0 10 z" fill="#ffb81c"/></marker></defs><rect x="0" y="0" width="660" height="470" rx="18" fill="#123f27"/><rect x="40" y="70" width="580" height="30" fill="#0e3421"/><rect x="40" y="130" width="580" height="30" fill="#0e3421"/><rect x="40" y="190" width="580" height="30" fill="#0e3421"/><rect x="40" y="250" width="580" height="30" fill="#0e3421"/><rect x="40" y="310" width="580" height="30" fill="#0e3421"/><rect x="40" y="370" width="580" height="30" fill="#0e3421"/><line x1="40" y1="40" x2="620" y2="40" stroke="rgba(255,255,255,.18)" stroke-width="1.5"/><line x1="40" y1="70" x2="620" y2="70" stroke="rgba(255,255,255,.18)" stroke-width="1.5"/><line x1="40" y1="100" x2="620" y2="100" stroke="rgba(255,255,255,.18)" stroke-width="1.5"/><line x1="40" y1="130" x2="620" y2="130" stroke="rgba(255,255,255,.18)" stroke-width="1.5"/><line x1="40" y1="160" x2="620" y2="160" stroke="rgba(255,255,255,.18)" stroke-width="1.5"/><line x1="40" y1="190" x2="620" y2="190" stroke="rgba(255,255,255,.18)" stroke-width="1.5"/><line x1="40" y1="220" x2="620" y2="220" stroke="rgba(255,255,255,.18)" stroke-width="1.5"/><line x1="40" y1="250" x2="620" y2="250" stroke="rgba(255,255,255,.18)" stroke-width="1.5"/><line x1="40" y1="280" x2="620" y2="280" stroke="rgba(255,255,255,.18)" stroke-width="1.5"/><line x1="40" y1="310" x2="620" y2="310" stroke="rgba(255,255,255,.18)" stroke-width="1.5"/><line x1="40" y1="340" x2="620" y2="340" stroke="rgba(255,255,255,.18)" stroke-width="1.5"/><line x1="40" y1="370" x2="620" y2="370" stroke="rgba(255,255,255,.18)" stroke-width="1.5"/><line x1="40" y1="400" x2="620" y2="400" stroke="rgba(255,255,255,.18)" stroke-width="1.5"/><line x1="40" y1="430" x2="620" y2="430" stroke="rgba(255,255,255,.18)" stroke-width="1.5"/><line x1="260" y1="48" x2="260" y2="53" stroke="rgba(255,255,255,.22)" stroke-width="1.4"/><line x1="260" y1="78" x2="260" y2="83" stroke="rgba(255,255,255,.22)" stroke-width="1.4"/><line x1="260" y1="108" x2="260" y2="113" stroke="rgba(255,255,255,.22)" stroke-width="1.4"/><line x1="260" y1="138" x2="260" y2="143" stroke="rgba(255,255,255,.22)" stroke-width="1.4"/><line x1="260" y1="168" x2="260" y2="173" stroke="rgba(255,255,255,.22)" stroke-width="1.4"/><line x1="260" y1="198" x2="260" y2="203" stroke="rgba(255,255,255,.22)" stroke-width="1.4"/><line x1="260" y1="228" x2="260" y2="233" stroke="rgba(255,255,255,.22)" stroke-width="1.4"/><line x1="260" y1="258" x2="260" y2="263" stroke="rgba(255,255,255,.22)" stroke-width="1.4"/><line x1="260" y1="288" x2="260" y2="293" stroke="rgba(255,255,255,.22)" stroke-width="1.4"/><line x1="260" y1="318" x2="260" y2="323" stroke="rgba(255,255,255,.22)" stroke-width="1.4"/><line x1="260" y1="348" x2="260" y2="353" stroke="rgba(255,255,255,.22)" stroke-width="1.4"/><line x1="260" y1="378" x2="260" y2="383" stroke="rgba(255,255,255,.22)" stroke-width="1.4"/><line x1="260" y1="408" x2="260" y2="413" stroke="rgba(255,255,255,.22)" stroke-width="1.4"/><line x1="400" y1="48" x2="400" y2="53" stroke="rgba(255,255,255,.22)" stroke-width="1.4"/><line x1="400" y1="78" x2="400" y2="83" stroke="rgba(255,255,255,.22)" stroke-width="1.4"/><line x1="400" y1="108" x2="400" y2="113" stroke="rgba(255,255,255,.22)" stroke-width="1.4"/><line x1="400" y1="138" x2="400" y2="143" stroke="rgba(255,255,255,.22)" stroke-width="1.4"/><line x1="400" y1="168" x2="400" y2="173" stroke="rgba(255,255,255,.22)" stroke-width="1.4"/><line x1="400" y1="198" x2="400" y2="203" stroke="rgba(255,255,255,.22)" stroke-width="1.4"/><line x1="400" y1="228" x2="400" y2="233" stroke="rgba(255,255,255,.22)" stroke-width="1.4"/><line x1="400" y1="258" x2="400" y2="263" stroke="rgba(255,255,255,.22)" stroke-width="1.4"/><line x1="400" y1="288" x2="400" y2="293" stroke="rgba(255,255,255,.22)" stroke-width="1.4"/><line x1="400" y1="318" x2="400" y2="323" stroke="rgba(255,255,255,.22)" stroke-width="1.4"/><line x1="400" y1="348" x2="400" y2="353" stroke="rgba(255,255,255,.22)" stroke-width="1.4"/><line x1="400" y1="378" x2="400" y2="383" stroke="rgba(255,255,255,.22)" stroke-width="1.4"/><line x1="400" y1="408" x2="400" y2="413" stroke="rgba(255,255,255,.22)" stroke-width="1.4"/><line x1="40" y1="292" x2="620" y2="292" stroke="#ffb81c" stroke-width="2.4" stroke-dasharray="2 5"/><text x="616" y="286" text-anchor="end" font-family="Space Grotesk, Arial, sans-serif" font-size="11" fill="#ffb81c" opacity=".85" font-weight="700">LOS</text><g><circle cx="240" cy="276" r="13" fill="#e31837" stroke="#fff" stroke-width="2.2"/><text x="240" y="280" text-anchor="middle" font-family="Space Grotesk, Arial, sans-serif" font-size="11.5" font-weight="700" fill="#fff">OL</text></g><g><circle cx="285" cy="276" r="13" fill="#e31837" stroke="#fff" stroke-width="2.2"/><text x="285" y="280" text-anchor="middle" font-family="Space Grotesk, Arial, sans-serif" font-size="11.5" font-weight="700" fill="#fff">OL</text></g><g><circle cx="330" cy="276" r="13" fill="#e31837" stroke="#fff" stroke-width="2.2"/><text x="330" y="280" text-anchor="middle" font-family="Space Grotesk, Arial, sans-serif" font-size="11.5" font-weight="700" fill="#fff">OL</text></g><g><circle cx="375" cy="276" r="13" fill="#e31837" stroke="#fff" stroke-width="2.2"/><text x="375" y="280" text-anchor="middle" font-family="Space Grotesk, Arial, sans-serif" font-size="11.5" font-weight="700" fill="#fff">OL</text></g><g><circle cx="420" cy="276" r="13" fill="#e31837" stroke="#fff" stroke-width="2.2"/><text x="420" y="280" text-anchor="middle" font-family="Space Grotesk, Arial, sans-serif" font-size="11.5" font-weight="700" fill="#fff">OL</text></g><g><circle cx="330" cy="318" r="13" fill="#0d0c0d" stroke="#ffb81c" stroke-width="2.2"/><text x="330" y="322" text-anchor="middle" font-family="Space Grotesk, Arial, sans-serif" font-size="11.5" font-weight="700" fill="#fff">QB</text></g><g><circle cx="364" cy="302" r="13" fill="#e31837" stroke="#fff" stroke-width="2.2"/><text x="364" y="306" text-anchor="middle" font-family="Space Grotesk, Arial, sans-serif" font-size="11.5" font-weight="700" fill="#fff">RB</text></g><path d="M 364 302 L 450 300 L 480 262" fill="none" stroke="#ffb81c" stroke-width="3" stroke-linecap="round" stroke-linejoin="round" marker-end="url(#arrow)"/><text x="488" y="258" font-family="Space Grotesk, Arial, sans-serif" font-size="10.5" font-weight="700" fill="#fff">screen</text><line x1="375" y1="276" x2="397" y2="267" stroke="#ffb81c" stroke-width="3" stroke-linecap="round"/><line x1="394" y1="260" x2="400" y2="273" stroke="#ffb81c" stroke-width="3" stroke-linecap="round"/><line x1="420" y1="276" x2="442" y2="268" stroke="#ffb81c" stroke-width="3" stroke-linecap="round"/><line x1="440" y1="261" x2="445" y2="274" stroke="#ffb81c" stroke-width="3" stroke-linecap="round"/><g><circle cx="64" cy="276" r="13" fill="#e31837" stroke="#fff" stroke-width="2.2"/><text x="64" y="280" text-anchor="middle" font-family="Space Grotesk, Arial, sans-serif" font-size="11.5" font-weight="700" fill="#fff">X</text></g><g><circle cx="596" cy="276" r="13" fill="#e31837" stroke="#fff" stroke-width="2.2"/><text x="596" y="280" text-anchor="middle" font-family="Space Grotesk, Arial, sans-serif" font-size="11.5" font-weight="700" fill="#fff">Z</text></g><path d="M 64 276 L 64 238" fill="none" stroke="#fff" stroke-width="3" stroke-linecap="round" stroke-linejoin="round" marker-end="url(#arrow)"/><path d="M 596 276 L 596 238" fill="none" stroke="#fff" stroke-width="3" stroke-linecap="round" stroke-linejoin="round" marker-end="url(#arrow)"/><g><text x="480" y="224" text-anchor="middle" font-family="Space Grotesk, Arial, sans-serif" font-size="20" font-weight="800" fill="#0b2340" stroke="#dfe7f2" stroke-width="1.4" paint-order="stroke">✕</text><text x="480" y="204" text-anchor="middle" font-family="Space Grotesk, Arial, sans-serif" font-size="9.5" font-weight="700" fill="#cdd9ea">LB</text></g><g><text x="560" y="238" text-anchor="middle" font-family="Space Grotesk, Arial, sans-serif" font-size="20" font-weight="800" fill="#0b2340" stroke="#dfe7f2" stroke-width="1.4" paint-order="stroke">✕</text><text x="560" y="218" text-anchor="middle" font-family="Space Grotesk, Arial, sans-serif" font-size="9.5" font-weight="700" fill="#cdd9ea">CB</text></g><rect x="0" y="0" width="660" height="30" rx="0" fill="#0d0c0d"/><text x="14" y="20" font-family="Space Grotesk, Arial, sans-serif" font-size="13" font-weight="800" fill="#ffb81c" letter-spacing=".04em">RB screen / easy offense</text><rect x="0" y="444" width="660" height="26" fill="#0d0c0d"/><text x="14" y="461" font-family="Space Grotesk, Arial, sans-serif" font-size="10.5" font-weight="600" fill="#f7f1e5">Turns an aggressive rush into a negative for the defense and gets the ball out of Mahomes' hands before the knee is ever tested.</text></svg>