<svg xmlns="http://www.w3.org/2000/svg" viewBox="0 0 660 470" role="img" aria-label="Spagnuolo Cover-2 shell — Takes the top off, rallies to tackle, and dares the offense to be patient — the situational change-up." width="660" height="470"><defs><marker id="arrow" viewBox="0 0 10 10" refX="8" refY="5" markerWidth="7" markerHeight="7" orient="auto-start-reverse"><path d="M0 0 L10 5 L0 10 z" fill="#ffffff"/></marker><marker id="arrow-gold" viewBox="0 0 10 10" refX="8" refY="5" markerWidth="7" markerHeight="7" orient="auto-start-reverse"><path d="M0 0 L10 5 L0 10 z" fill="#ffb81c"/></marker></defs><rect x="0" y="0" width="660" height="470" rx="18" fill="#123f27"/><rect x="40" y="70" width="580" height="30" fill="#0e3421"/><rect x="40" y="130" width="580" height="30" fill="#0e3421"/><rect x="40" y="190" width="580" height="30" fill="#0e3421"/><rect x="40" y="250" width="580" height="30" fill="#0e3421"/><rect x="40" y="310" width="580" height="30" fill="#0e3421"/><rect x="40" y="370" width="580" height="30" fill="#0e3421"/><line x1="40" y1="40" x2="620" y2="40" stroke="rgba(255,255,255,.18)" stroke-width="1.5"/><line x1="40" y1="70" x2="620" y2="70" stroke="rgba(255,255,255,.18)" stroke-width="1.5"/><line x1="40" y1="100" x2="620" y2="100" stroke="rgba(255,255,255,.18)" stroke-width="1.5"/><line x1="40" y1="130" x2="620" y2="130" stroke="rgba(255,255,255,.18)" stroke-width="1.5"/><line x1="40" y1="160" x2="620" y2="160" stroke="rgba(255,255,255,.18)" stroke-width="1.5"/><line x1="40" y1="190" x2="620" y2="190" stroke="rgba(255,255,255,.18)" stroke-width="1.5"/><line x1="40" y1="220" x2="620" y2="220" stroke="rgba(255,255,255,.18)" stroke-width="1.5"/><line x1="40" y1="250" x2="620" y2="250" stroke="rgba(255,255,255,.18)" stroke-width="1.5"/><line x1="40" y1="280" x2="620" y2="280" stroke="rgba(255,255,255,.18)" stroke-width="1.5"/><line x1="40" y1="310" x2="620" y2="310" stroke="rgba(255,255,255,.18)" stroke-width="1.5"/><line x1="40" y1="340" x2="620" y2="340" stroke="rgba(255,255,255,.18)" stroke-width="1.5"/><line x1="40" y1="370" x2="620" y2="370" stroke="rgba(255,255,255,.18)" stroke-width="1.5"/><line x1="40" y1="400" x2="620" y2="400" stroke="rgba(255,255,255,.18)" stroke-width="1.5"/><line x1="40" y1="430" x2="620" y2="430" stroke="rgba(255,255,255,.18)" stroke-width="1.5"/><line x1="260" y1="48" x2="260" y2="53" stroke="rgba(255,255,255,.22)" stroke-width="1.4"/><line x1="260" y1="78" x2="260" y2="83" stroke="rgba(255,255,255,.22)" stroke-width="1.4"/><line x1="260" y1="108" x2="260" y2="113" stroke="rgba(255,255,255,.22)" stroke-width="1.4"/><line x1="260" y1="138" x2="260" y2="143" stroke="rgba(255,255,255,.22)" stroke-width="1.4"/><line x1="260" y1="168" x2="260" y2="173" stroke="rgba(255,255,255,.22)" stroke-width="1.4"/><line x1="260" y1="198" x2="260" y2="203" stroke="rgba(255,255,255,.22)" stroke-width="1.4"/><line x1="260" y1="228" x2="260" y2="233" stroke="rgba(255,255,255,.22)" stroke-width="1.4"/><line x1="260" y1="258" x2="260" y2="263" stroke="rgba(255,255,255,.22)" stroke-width="1.4"/><line x1="260" y1="288" x2="260" y2="293" stroke="rgba(255,255,255,.22)" stroke-width="1.4"/><line x1="260" y1="318" x2="260" y2="323" stroke="rgba(255,255,255,.22)" stroke-width="1.4"/><line x1="260" y1="348" x2="260" y2="353" stroke="rgba(255,255,255,.22)" stroke-width="1.4"/><line x1="260" y1="378" x2="260" y2="383" stroke="rgba(255,255,255,.22)" stroke-width="1.4"/><line x1="260" y1="408" x2="260" y2="413" stroke="rgba(255,255,255,.22)" stroke-width="1.4"/><line x1="400" y1="48" x2="400" y2="53" stroke="rgba(255,255,255,.22)" stroke-width="1.4"/><line x1="400" y1="78" x2="400" y2="83" stroke="rgba(255,255,255,.22)" stroke-width="1.4"/><line x1="400" y1="108" x2="400" y2="113" stroke="rgba(255,255,255,.22)" stroke-width="1.4"/><line x1="400" y1="138" x2="400" y2="143" stroke="rgba(255,255,255,.22)" stroke-width="1.4"/><line x1="400" y1="168" x2="400" y2="173" stroke="rgba(255,255,255,.22)" stroke-width="1.4"/><line x1="400" y1="198" x2="400" y2="203" stroke="rgba(255,255,255,.22)" stroke-width="1.4"/><line x1="400" y1="228" x2="400" y2="233" stroke="rgba(255,255,255,.22)" stroke-width="1.4"/><line x1="400" y1="258" x2="400" y2="263" stroke="rgba(255,255,255,.22)" stroke-width="1.4"/><line x1="400" y1="288" x2="400" y2="293" stroke="rgba(255,255,255,.22)" stroke-width="1.4"/><line x1="400" y1="318" x2="400" y2="323" stroke="rgba(255,255,255,.22)" stroke-width="1.4"/><line x1="400" y1="348" x2="400" y2="353" stroke="rgba(255,255,255,.22)" stroke-width="1.4"/><line x1="400" y1="378" x2="400" y2="383" stroke="rgba(255,255,255,.22)" stroke-width="1.4"/><line x1="400" y1="408" x2="400" y2="413" stroke="rgba(255,255,255,.22)" stroke-width="1.4"/><line x1="40" y1="292" x2="620" y2="292" stroke="#ffb81c" stroke-width="2.4" stroke-dasharray="2 5"/><text x="616" y="286" text-anchor="end" font-family="Space Grotesk, Arial, sans-serif" font-size="11" fill="#ffb81c" opacity=".85" font-weight="700">LOS</text><g><circle cx="240" cy="280" r="13" fill="#e31837" stroke="#fff" stroke-width="2.2"/><text x="240" y="284" text-anchor="middle" font-family="Space Grotesk, Arial, sans-serif" font-size="11.5" font-weight="700" fill="#fff">OL</text></g><g><circle cx="285" cy="280" r="13" fill="#e31837" stroke="#fff" stroke-width="2.2"/><text x="285" y="284" text-anchor="middle" font-family="Space Grotesk, Arial, sans-serif" font-size="11.5" font-weight="700" fill="#fff">OL</text></g><g><circle cx="330" cy="280" r="13" fill="#e31837" stroke="#fff" stroke-width="2.2"/><text x="330" y="284" text-anchor="middle" font-family="Space Grotesk, Arial, sans-serif" font-size="11.5" font-weight="700" fill="#fff">OL</text></g><g><circle cx="375" cy="280" r="13" fill="#e31837" stroke="#fff" stroke-width="2.2"/><text x="375" y="284" text-anchor="middle" font-family="Space Grotesk, Arial, sans-serif" font-size="11.5" font-weight="700" fill="#fff">OL</text></g><g><circle cx="420" cy="280" r="13" fill="#e31837" stroke="#fff" stroke-width="2.2"/><text x="420" y="284" text-anchor="middle" font-family="Space Grotesk, Arial, sans-serif" font-size="11.5" font-weight="700" fill="#fff">OL</text></g><g><circle cx="330" cy="312" r="13" fill="#0d0c0d" stroke="#ffb81c" stroke-width="2.2"/><text x="330" y="316" text-anchor="middle" font-family="Space Grotesk, Arial, sans-serif" font-size="11.5" font-weight="700" fill="#fff">QB</text></g><g><circle cx="64" cy="280" r="13" fill="#e31837" stroke="#fff" stroke-width="2.2"/><text x="64" y="284" text-anchor="middle" font-family="Space Grotesk, Arial, sans-serif" font-size="11.5" font-weight="700" fill="#fff">X</text></g><g><circle cx="596" cy="280" r="13" fill="#e31837" stroke="#fff" stroke-width="2.2"/><text x="596" y="284" text-anchor="middle" font-family="Space Grotesk, Arial, sans-serif" font-size="11.5" font-weight="700" fill="#fff">Z</text></g><ellipse cx="220" cy="142" rx="34" ry="24" fill="rgba(11,35,64,.30)" stroke="#9db6d6" stroke-width="1.6" stroke-dasharray="4 4"/><text x="220" y="146" text-anchor="middle" font-family="Space Grotesk, Arial, sans-serif" font-size="10" font-weight="700" fill="#dbe6f4">1/2</text><ellipse cx="440" cy="142" rx="34" ry="24" fill="rgba(11,35,64,.30)" stroke="#9db6d6" stroke-width="1.6" stroke-dasharray="4 4"/><text x="440" y="146" text-anchor="middle" font-family="Space Grotesk, Arial, sans-serif" font-size="10" font-weight="700" fill="#dbe6f4">1/2</text><ellipse cx="80" cy="212" rx="34" ry="24" fill="rgba(11,35,64,.30)" stroke="#9db6d6" stroke-width="1.6" stroke-dasharray="4 4"/><text x="80" y="216" text-anchor="middle" font-family="Space Grotesk, Arial, sans-serif" font-size="10" font-weight="700" fill="#dbe6f4">flat</text><ellipse cx="260" cy="212" rx="34" ry="24" fill="rgba(11,35,64,.30)" stroke="#9db6d6" stroke-width="1.6" stroke-dasharray="4 4"/><text x="260" y="216" text-anchor="middle" font-family="Space Grotesk, Arial, sans-serif" font-size="10" font-weight="700" fill="#dbe6f4">hook</text><ellipse cx="400" cy="212" rx="34" ry="24" fill="rgba(11,35,64,.30)" stroke="#9db6d6" stroke-width="1.6" stroke-dasharray="4 4"/><text x="400" y="216" text-anchor="middle" font-family="Space Grotesk, Arial, sans-serif" font-size="10" font-weight="700" fill="#dbe6f4">hook</text><ellipse cx="580" cy="212" rx="34" ry="24" fill="rgba(11,35,64,.30)" stroke="#9db6d6" stroke-width="1.6" stroke-dasharray="4 4"/><text x="580" y="216" text-anchor="middle" font-family="Space Grotesk, Arial, sans-serif" font-size="10" font-weight="700" fill="#dbe6f4">flat</text><g><text x="264" y="258" text-anchor="middle" font-family="Space Grotesk, Arial, sans-serif" font-size="20" font-weight="800" fill="#0b2340" stroke="#dfe7f2" stroke-width="1.4" paint-order="stroke">✕</text><text x="264" y="238" text-anchor="middle" font-family="Space Grotesk, Arial, sans-serif" font-size="9.5" font-weight="700" fill="#cdd9ea">DL</text></g><g><text x="308" y="258" text-anchor="middle" font-family="Space Grotesk, Arial, sans-serif" font-size="20" font-weight="800" fill="#0b2340" stroke="#dfe7f2" stroke-width="1.4" paint-order="stroke">✕</text><text x="308" y="238" text-anchor="middle" font-family="Space Grotesk, Arial, sans-serif" font-size="9.5" font-weight="700" fill="#cdd9ea">DL</text></g><g><text x="352" y="258" text-anchor="middle" font-family="Space Grotesk, Arial, sans-serif" font-size="20" font-weight="800" fill="#0b2340" stroke="#dfe7f2" stroke-width="1.4" paint-order="stroke">✕</text><text x="352" y="238" text-anchor="middle" font-family="Space Grotesk, Arial, sans-serif" font-size="9.5" font-weight="700" fill="#cdd9ea">DL</text></g><g><text x="396" y="258" text-anchor="middle" font-family="Space Grotesk, Arial, sans-serif" font-size="20" font-weight="800" fill="#0b2340" stroke="#dfe7f2" stroke-width="1.4" paint-order="stroke">✕</text><text x="396" y="238" text-anchor="middle" font-family="Space Grotesk, Arial, sans-serif" font-size="9.5" font-weight="700" fill="#cdd9ea">DL</text></g><rect x="0" y="0" width="660" height="30" rx="0" fill="#0d0c0d"/><text x="14" y="20" font-family="Space Grotesk, Arial, sans-serif" font-size="13" font-weight="800" fill="#ffb81c" letter-spacing=".04em">Spagnuolo Cover-2 shell</text><rect x="0" y="444" width="660" height="26" fill="#0d0c0d"/><text x="14" y="461" font-family="Space Grotesk, Arial, sans-serif" font-size="10.5" font-weight="600" fill="#f7f1e5">Takes the top off, rallies to tackle, and dares the offense to be patient — the situational change-up.</text></svg>