<svg xmlns="http://www.w3.org/2000/svg" viewBox="0 0 660 470" role="img" aria-label="Under-center inside zone — The early-down run that makes the whole play-action menu honest and keeps the offense on schedule." width="660" height="470"><defs><marker id="arrow" viewBox="0 0 10 10" refX="8" refY="5" markerWidth="7" markerHeight="7" orient="auto-start-reverse"><path d="M0 0 L10 5 L0 10 z" fill="#ffffff"/></marker><marker id="arrow-gold" viewBox="0 0 10 10" refX="8" refY="5" markerWidth="7" markerHeight="7" orient="auto-start-reverse"><path d="M0 0 L10 5 L0 10 z" fill="#ffb81c"/></marker></defs><rect x="0" y="0" width="660" height="470" rx="18" fill="#123f27"/><rect x="40" y="70" width="580" height="30" fill="#0e3421"/><rect x="40" y="130" width="580" height="30" fill="#0e3421"/><rect x="40" y="190" width="580" height="30" fill="#0e3421"/><rect x="40" y="250" width="580" height="30" fill="#0e3421"/><rect x="40" y="310" width="580" height="30" fill="#0e3421"/><rect x="40" y="370" width="580" height="30" fill="#0e3421"/><line x1="40" y1="40" x2="620" y2="40" stroke="rgba(255,255,255,.18)" stroke-width="1.5"/><line x1="40" y1="70" x2="620" y2="70" stroke="rgba(255,255,255,.18)" stroke-width="1.5"/><line x1="40" y1="100" x2="620" y2="100" stroke="rgba(255,255,255,.18)" stroke-width="1.5"/><line x1="40" y1="130" x2="620" y2="130" stroke="rgba(255,255,255,.18)" stroke-width="1.5"/><line x1="40" y1="160" x2="620" y2="160" stroke="rgba(255,255,255,.18)" stroke-width="1.5"/><line x1="40" y1="190" x2="620" y2="190" stroke="rgba(255,255,255,.18)" stroke-width="1.5"/><line x1="40" y1="220" x2="620" y2="220" stroke="rgba(255,255,255,.18)" stroke-width="1.5"/><line x1="40" y1="250" x2="620" y2="250" stroke="rgba(255,255,255,.18)" stroke-width="1.5"/><line x1="40" y1="280" x2="620" y2="280" stroke="rgba(255,255,255,.18)" stroke-width="1.5"/><line x1="40" y1="310" x2="620" y2="310" stroke="rgba(255,255,255,.18)" stroke-width="1.5"/><line x1="40" y1="340" x2="620" y2="340" stroke="rgba(255,255,255,.18)" stroke-width="1.5"/><line x1="40" y1="370" x2="620" y2="370" stroke="rgba(255,255,255,.18)" stroke-width="1.5"/><line x1="40" y1="400" x2="620" y2="400" stroke="rgba(255,255,255,.18)" stroke-width="1.5"/><line x1="40" y1="430" x2="620" y2="430" stroke="rgba(255,255,255,.18)" stroke-width="1.5"/><line x1="260" y1="48" x2="260" y2="53" stroke="rgba(255,255,255,.22)" stroke-width="1.4"/><line x1="260" y1="78" x2="260" y2="83" stroke="rgba(255,255,255,.22)" stroke-width="1.4"/><line x1="260" y1="108" x2="260" y2="113" stroke="rgba(255,255,255,.22)" stroke-width="1.4"/><line x1="260" y1="138" x2="260" y2="143" stroke="rgba(255,255,255,.22)" stroke-width="1.4"/><line x1="260" y1="168" x2="260" y2="173" stroke="rgba(255,255,255,.22)" stroke-width="1.4"/><line x1="260" y1="198" x2="260" y2="203" stroke="rgba(255,255,255,.22)" stroke-width="1.4"/><line x1="260" y1="228" x2="260" y2="233" stroke="rgba(255,255,255,.22)" stroke-width="1.4"/><line x1="260" y1="258" x2="260" y2="263" stroke="rgba(255,255,255,.22)" stroke-width="1.4"/><line x1="260" y1="288" x2="260" y2="293" stroke="rgba(255,255,255,.22)" stroke-width="1.4"/><line x1="260" y1="318" x2="260" y2="323" stroke="rgba(255,255,255,.22)" stroke-width="1.4"/><line x1="260" y1="348" x2="260" y2="353" stroke="rgba(255,255,255,.22)" stroke-width="1.4"/><line x1="260" y1="378" x2="260" y2="383" stroke="rgba(255,255,255,.22)" stroke-width="1.4"/><line x1="260" y1="408" x2="260" y2="413" stroke="rgba(255,255,255,.22)" stroke-width="1.4"/><line x1="400" y1="48" x2="400" y2="53" stroke="rgba(255,255,255,.22)" stroke-width="1.4"/><line x1="400" y1="78" x2="400" y2="83" stroke="rgba(255,255,255,.22)" stroke-width="1.4"/><line x1="400" y1="108" x2="400" y2="113" stroke="rgba(255,255,255,.22)" stroke-width="1.4"/><line x1="400" y1="138" x2="400" y2="143" stroke="rgba(255,255,255,.22)" stroke-width="1.4"/><line x1="400" y1="168" x2="400" y2="173" stroke="rgba(255,255,255,.22)" stroke-width="1.4"/><line x1="400" y1="198" x2="400" y2="203" stroke="rgba(255,255,255,.22)" stroke-width="1.4"/><line x1="400" y1="228" x2="400" y2="233" stroke="rgba(255,255,255,.22)" stroke-width="1.4"/><line x1="400" y1="258" x2="400" y2="263" stroke="rgba(255,255,255,.22)" stroke-width="1.4"/><line x1="400" y1="288" x2="400" y2="293" stroke="rgba(255,255,255,.22)" stroke-width="1.4"/><line x1="400" y1="318" x2="400" y2="323" stroke="rgba(255,255,255,.22)" stroke-width="1.4"/><line x1="400" y1="348" x2="400" y2="353" stroke="rgba(255,255,255,.22)" stroke-width="1.4"/><line x1="400" y1="378" x2="400" y2="383" stroke="rgba(255,255,255,.22)" stroke-width="1.4"/><line x1="400" y1="408" x2="400" y2="413" stroke="rgba(255,255,255,.22)" stroke-width="1.4"/><line x1="40" y1="292" x2="620" y2="292" stroke="#ffb81c" stroke-width="2.4" stroke-dasharray="2 5"/><text x="616" y="286" text-anchor="end" font-family="Space Grotesk, Arial, sans-serif" font-size="11" fill="#ffb81c" opacity=".85" font-weight="700">LOS</text><g><circle cx="240" cy="276" r="13" fill="#e31837" stroke="#fff" stroke-width="2.2"/><text x="240" y="280" text-anchor="middle" font-family="Space Grotesk, Arial, sans-serif" font-size="11.5" font-weight="700" fill="#fff">OL</text></g><g><circle cx="285" cy="276" r="13" fill="#e31837" stroke="#fff" stroke-width="2.2"/><text x="285" y="280" text-anchor="middle" font-family="Space Grotesk, Arial, sans-serif" font-size="11.5" font-weight="700" fill="#fff">OL</text></g><g><circle cx="330" cy="276" r="13" fill="#e31837" stroke="#fff" stroke-width="2.2"/><text x="330" y="280" text-anchor="middle" font-family="Space Grotesk, Arial, sans-serif" font-size="11.5" font-weight="700" fill="#fff">OL</text></g><g><circle cx="375" cy="276" r="13" fill="#e31837" stroke="#fff" stroke-width="2.2"/><text x="375" y="280" text-anchor="middle" font-family="Space Grotesk, Arial, sans-serif" font-size="11.5" font-weight="700" fill="#fff">OL</text></g><g><circle cx="420" cy="276" r="13" fill="#e31837" stroke="#fff" stroke-width="2.2"/><text x="420" y="280" text-anchor="middle" font-family="Space Grotesk, Arial, sans-serif" font-size="11.5" font-weight="700" fill="#fff">OL</text></g><g><circle cx="330" cy="310" r="13" fill="#0d0c0d" stroke="#ffb81c" stroke-width="2.2"/><text x="330" y="314" text-anchor="middle" font-family="Space Grotesk, Arial, sans-serif" font-size="11.5" font-weight="700" fill="#fff">QB</text></g><g><circle cx="446" cy="276" r="13" fill="#e31837" stroke="#fff" stroke-width="2.2"/><text x="446" y="280" text-anchor="middle" font-family="Space Grotesk, Arial, sans-serif" font-size="11.5" font-weight="700" fill="#fff">TE</text></g><g><circle cx="334" cy="326" r="13" fill="#e31837" stroke="#fff" stroke-width="2.2"/><text x="334" y="330" text-anchor="middle" font-family="Space Grotesk, Arial, sans-serif" font-size="11.5" font-weight="700" fill="#fff">RB</text></g><path d="M 330 310 L 334 320" fill="none" stroke="#ffb81c" stroke-width="2.4" stroke-dasharray="3 4" marker-end="url(#arrow-gold)"/><line x1="240" y1="276" x2="254" y2="256" stroke="#ffb81c" stroke-width="3" stroke-linecap="round"/><line x1="248" y1="252" x2="260" y2="261" stroke="#ffb81c" stroke-width="3" stroke-linecap="round"/><line x1="285" y1="276" x2="299" y2="256" stroke="#ffb81c" stroke-width="3" stroke-linecap="round"/><line x1="293" y1="252" x2="305" y2="261" stroke="#ffb81c" stroke-width="3" stroke-linecap="round"/><line x1="330" y1="276" x2="344" y2="256" stroke="#ffb81c" stroke-width="3" stroke-linecap="round"/><line x1="338" y1="252" x2="350" y2="261" stroke="#ffb81c" stroke-width="3" stroke-linecap="round"/><line x1="375" y1="276" x2="389" y2="256" stroke="#ffb81c" stroke-width="3" stroke-linecap="round"/><line x1="383" y1="252" x2="395" y2="261" stroke="#ffb81c" stroke-width="3" stroke-linecap="round"/><line x1="420" y1="276" x2="434" y2="256" stroke="#ffb81c" stroke-width="3" stroke-linecap="round"/><line x1="428" y1="252" x2="440" y2="261" stroke="#ffb81c" stroke-width="3" stroke-linecap="round"/><line x1="446" y1="276" x2="462" y2="258" stroke="#ffb81c" stroke-width="3" stroke-linecap="round"/><line x1="456" y1="253" x2="467" y2="262" stroke="#ffb81c" stroke-width="3" stroke-linecap="round"/><path d="M 334 326 L 370 288 L 390 222" fill="none" stroke="#ffb81c" stroke-width="3" stroke-linecap="round" stroke-linejoin="round" marker-end="url(#arrow)"/><text x="398" y="218" font-family="Space Grotesk, Arial, sans-serif" font-size="10.5" font-weight="700" fill="#fff">A-gap</text><g><circle cx="64" cy="276" r="13" fill="#e31837" stroke="#fff" stroke-width="2.2"/><text x="64" y="280" text-anchor="middle" font-family="Space Grotesk, Arial, sans-serif" font-size="11.5" font-weight="700" fill="#fff">X</text></g><g><circle cx="596" cy="276" r="13" fill="#e31837" stroke="#fff" stroke-width="2.2"/><text x="596" y="280" text-anchor="middle" font-family="Space Grotesk, Arial, sans-serif" font-size="11.5" font-weight="700" fill="#fff">Z</text></g><g><text x="360" y="258" text-anchor="middle" font-family="Space Grotesk, Arial, sans-serif" font-size="20" font-weight="800" fill="#0b2340" stroke="#dfe7f2" stroke-width="1.4" paint-order="stroke">✕</text><text x="360" y="238" text-anchor="middle" font-family="Space Grotesk, Arial, sans-serif" font-size="9.5" font-weight="700" fill="#cdd9ea">DT</text></g><g><text x="300" y="258" text-anchor="middle" font-family="Space Grotesk, Arial, sans-serif" font-size="20" font-weight="800" fill="#0b2340" stroke="#dfe7f2" stroke-width="1.4" paint-order="stroke">✕</text><text x="300" y="238" text-anchor="middle" font-family="Space Grotesk, Arial, sans-serif" font-size="9.5" font-weight="700" fill="#cdd9ea">DT</text></g><g><text x="390" y="216" text-anchor="middle" font-family="Space Grotesk, Arial, sans-serif" font-size="20" font-weight="800" fill="#0b2340" stroke="#dfe7f2" stroke-width="1.4" paint-order="stroke">✕</text><text x="390" y="196" text-anchor="middle" font-family="Space Grotesk, Arial, sans-serif" font-size="9.5" font-weight="700" fill="#cdd9ea">LB</text></g><g><text x="290" y="216" text-anchor="middle" font-family="Space Grotesk, Arial, sans-serif" font-size="20" font-weight="800" fill="#0b2340" stroke="#dfe7f2" stroke-width="1.4" paint-order="stroke">✕</text><text x="290" y="196" text-anchor="middle" font-family="Space Grotesk, Arial, sans-serif" font-size="9.5" font-weight="700" fill="#cdd9ea">LB</text></g><rect x="0" y="0" width="660" height="30" rx="0" fill="#0d0c0d"/><text x="14" y="20" font-family="Space Grotesk, Arial, sans-serif" font-size="13" font-weight="800" fill="#ffb81c" letter-spacing=".04em">Under-center inside zone</text><rect x="0" y="444" width="660" height="26" fill="#0d0c0d"/><text x="14" y="461" font-family="Space Grotesk, Arial, sans-serif" font-size="10.5" font-weight="600" fill="#f7f1e5">The early-down run that makes the whole play-action menu honest and keeps the offense on schedule.</text></svg>